<?xml version="1.0" encoding="UTF-8" standalone="no"?>
<!-- Created with Inkscape (http://www.inkscape.org/) -->

<svg
   xmlns:dc="http://purl.org/dc/elements/1.1/"
   xmlns:cc="http://creativecommons.org/ns#"
   xmlns:rdf="http://www.w3.org/1999/02/22-rdf-syntax-ns#"
   xmlns:svg="http://www.w3.org/2000/svg"
   xmlns="http://www.w3.org/2000/svg"
   xmlns:sodipodi="http://sodipodi.sourceforge.net/DTD/sodipodi-0.dtd"
   xmlns:inkscape="http://www.inkscape.org/namespaces/inkscape"
   width="1010.4753mm"
   height="1032.2618mm"
   viewBox="0 0 3580.4242 3657.6206"
   id="svg2"
   version="1.1"
   inkscape:version="0.91 r13725"
   sodipodi:docname="index.svg">
  <defs
     id="defs4">
    <inkscape:path-effect
       is_visible="true"
       id="path-effect4289"
       linkedpath="#path4136"
       effect="clone_original" />
    <inkscape:path-effect
       effect="clone_original"
       linkedpath="#path4136"
       id="path-effect4285"
       is_visible="true" />
    <inkscape:path-effect
       is_visible="true"
       id="path-effect4281"
       linkedpath="#path4136"
       effect="clone_original" />
    <inkscape:path-effect
       effect="clone_original"
       linkedpath="#path4136"
       id="path-effect4277"
       is_visible="true" />
    <inkscape:path-effect
       is_visible="true"
       id="path-effect4273"
       linkedpath="#path4136"
       effect="clone_original" />
    <inkscape:path-effect
       effect="clone_original"
       linkedpath="#path4136"
       id="path-effect4269"
       is_visible="true" />
    <inkscape:path-effect
       is_visible="true"
       id="path-effect4265"
       linkedpath="#path4136"
       effect="clone_original" />
    <inkscape:path-effect
       is_visible="true"
       effect="clone_original"
       linkedpath="#path4136"
       id="path-effect4261" />
    <inkscape:path-effect
       is_visible="true"
       id="path-effect4257"
       linkedpath="#path4136"
       effect="clone_original" />
    <inkscape:path-effect
       is_visible="true"
       effect="clone_original"
       linkedpath="#path4136"
       id="path-effect4253" />
    <inkscape:path-effect
       effect="clone_original"
       linkedpath="#path4136"
       id="path-effect4249"
       is_visible="true" />
    <inkscape:path-effect
       is_visible="true"
       id="path-effect4245"
       linkedpath="#path4136"
       effect="clone_original" />
    <inkscape:path-effect
       effect="clone_original"
       linkedpath="#path4136"
       id="path-effect4241"
       is_visible="true" />
    <inkscape:path-effect
       is_visible="true"
       id="path-effect4237"
       linkedpath="#path4136"
       effect="clone_original" />
    <inkscape:path-effect
       effect="clone_original"
       linkedpath="#path4136"
       id="path-effect4233"
       is_visible="true" />
    <inkscape:path-effect
       is_visible="true"
       id="path-effect4229"
       linkedpath="#path4136"
       effect="clone_original" />
    <inkscape:path-effect
       effect="clone_original"
       linkedpath="#rect4154"
       id="path-effect4174"
       is_visible="true" />
    <inkscape:path-effect
       effect="clone_original"
       linkedpath="#path4136"
       id="path-effect4297"
       is_visible="true" />
    <inkscape:path-effect
       id="path-effect4293"
       linkedpath="#path4136"
       effect="clone_original"
       is_visible="true" />
    <inkscape:path-effect
       id="path-effect4155"
       linkedpath="#path4136"
       effect="clone_original"
       is_visible="true" />
    <inkscape:path-effect
       effect="clone_original"
       linkedpath="#path4136"
       id="path-effect4149"
       is_visible="true" />
    <inkscape:path-effect
       effect="clone_original"
       linkedpath="#path4136"
       id="path-effect4145"
       is_visible="true" />
  </defs>
  <sodipodi:namedview
     id="base"
     pagecolor="#ffffff"
     bordercolor="#666666"
     borderopacity="1.0"
     inkscape:pageopacity="0.0"
     inkscape:pageshadow="2"
     inkscape:zoom="0.20917684"
     inkscape:cx="1396.0524"
     inkscape:cy="2641.9968"
     inkscape:document-units="px"
     inkscape:current-layer="layer1"
     showgrid="false"
     inkscape:window-width="1366"
     inkscape:window-height="719"
     inkscape:window-x="0"
     inkscape:window-y="25"
     inkscape:window-maximized="1"
     fit-margin-top="0"
     fit-margin-left="0"
     fit-margin-right="0"
     fit-margin-bottom="0" />
  <metadata
     id="metadata7">
    <rdf:RDF>
      <cc:Work
         rdf:about="">
        <dc:format>image/svg+xml</dc:format>
        <dc:type
           rdf:resource="http://purl.org/dc/dcmitype/StillImage" />
        <dc:title></dc:title>
      </cc:Work>
    </rdf:RDF>
  </metadata>
  <g
     inkscape:label="Camada 1"
     inkscape:groupmode="layer"
     id="layer1"
     transform="translate(3198.5491,1555.7107)">
    <path
       style="fill:#0000ff;fill-opacity:1;fill-rule:evenodd;stroke:#ff2a2a;stroke-width:2.09041119;stroke-linecap:butt;stroke-linejoin:miter;stroke-miterlimit:4;stroke-dasharray:none;stroke-opacity:1"
       d="m -273.26492,1720.0248 -57.56169,14.0608 -20.05903,121.4265 27.90864,131.6531 44.47877,-6.3908 0.30185,-1.4075 -12.50455,-48.2273 -0.8794,4.8982 -23.54707,11.5042 -13.08211,-93.3075 c 0,0 15.69786,-70.2999 19.18638,-84.3599 l 18.31546,5.112 16.57011,63.9094 -6.64304,36.995 7.00475,-1.7114 8.42629,45.2816 15.63176,-72.8953 -23.54712,-126.5411 z"
       id="path4136"
       inkscape:connector-curvature="0" />
    <path
       d="m -273.26492,1720.0248 -57.56169,14.0608 -20.05903,121.4265 27.90864,131.6531 44.47877,-6.3908 0.30185,-1.4075 -12.50455,-48.2273 -0.8794,4.8982 -23.54707,11.5042 -13.08211,-93.3075 c 0,0 15.69786,-70.2999 19.18638,-84.3599 l 18.31546,5.112 16.57011,63.9094 -6.64304,36.995 7.00475,-1.7114 8.42629,45.2816 15.63176,-72.8953 -23.54712,-126.5411 z"
       id="path4151"
       inkscape:path-effect="#path-effect4149"
       inkscape:original-d="M 0,0"
       inkscape:connector-curvature="0"
       transform="translate(0.51997326,-156.26639)"
       style="fill:#0000ff;fill-opacity:1;stroke:#ff2a2a;stroke-width:4;stroke-miterlimit:4;stroke-dasharray:none" />
    <path
       transform="translate(1.9391136,-312.5984)"
       inkscape:connector-curvature="0"
       inkscape:original-d="M 0,0"
       id="path4153"
       d="m -273.26492,1720.0248 -57.56169,14.0608 -20.05903,121.4265 27.90864,131.6531 44.47877,-6.3908 0.30185,-1.4075 -12.50455,-48.2273 -0.8794,4.8982 -23.54707,11.5042 -13.08211,-93.3075 c 0,0 15.69786,-70.2999 19.18638,-84.3599 l 18.31546,5.112 16.57011,63.9094 -6.64304,36.995 7.00475,-1.7114 8.42629,45.2816 15.63176,-72.8953 -23.54712,-126.5411 z"
       inkscape:path-effect="#path-effect4155"
       style="fill:#0000ff;fill-opacity:1;stroke:#ff2a2a;stroke-width:4;stroke-miterlimit:4;stroke-dasharray:none" />
    <path
       d="m -273.26492,1720.0248 -57.56169,14.0608 -20.05903,121.4265 27.90864,131.6531 44.47877,-6.3908 0.30185,-1.4075 -12.50455,-48.2273 -0.8794,4.8982 -23.54707,11.5042 -13.08211,-93.3075 c 0,0 15.69786,-70.2999 19.18638,-84.3599 l 18.31546,5.112 16.57011,63.9094 -6.64304,36.995 7.00475,-1.7114 8.42629,45.2816 15.63176,-72.8953 -23.54712,-126.5411 z"
       id="path4147"
       inkscape:path-effect="#path-effect4145"
       inkscape:original-d="M 0,0"
       inkscape:connector-curvature="0"
       transform="translate(2.0217811,-467.59317)"
       style="fill:#0000ff;fill-opacity:1;stroke:#ff2a2a;stroke-width:4;stroke-miterlimit:4;stroke-dasharray:none" />
    <rect
       style="fill:#808000;fill-opacity:1;stroke:none;stroke-width:90;stroke-linecap:round;stroke-linejoin:round;stroke-miterlimit:4;stroke-dasharray:none;stroke-opacity:1"
       id="rect5795"
       width="640.60632"
       height="1830.9867"
       x="-3145.9619"
       y="-1708.2633" />
    <path
       style="fill:none;fill-rule:evenodd;stroke:#000000;stroke-width:200;stroke-linecap:butt;stroke-linejoin:round;stroke-miterlimit:4;stroke-dasharray:none;stroke-opacity:1"
       d="m 939.09205,1162.1516 -1494.1482,0 0,-1243.996747 -3082.94825,0"
       id="path5765"
       inkscape:connector-curvature="0" />
    <path
       style="fill:none;fill-rule:evenodd;stroke:#000000;stroke-width:90;stroke-linecap:round;stroke-linejoin:round;stroke-opacity:1;stroke-miterlimit:4.1;stroke-dasharray:none"
       d="m -2277.29,-1607.3701 0,1002.07126 436.3859,0 0,856.60934 897.0154,0 0,1187.9394 -444.4671,0 0,961.6652"
       id="path4307"
       inkscape:connector-curvature="0" />
    <path
       style="fill:none;fill-rule:evenodd;stroke:#000000;stroke-width:150;stroke-linecap:butt;stroke-linejoin:round;stroke-opacity:1;stroke-miterlimit:4;stroke-dasharray:none"
       d="m -1305.5107,-1941.0793 0,1102.01878 561.1507,0 0,1609.08262 -1467.1048,0 0,1818.6691"
       id="path5763"
       inkscape:connector-curvature="0" />
    <path
       inkscape:connector-curvature="0"
       id="path4309"
       d="m -2507.159,-2236.1293 0,1908.02537 436.3859,0 0,856.60934 897.0154,0 0,1187.93939 -444.4671,0 0,961.6652"
       style="fill:none;fill-rule:evenodd;stroke:#000000;stroke-width:200;stroke-linecap:round;stroke-linejoin:round;stroke-miterlimit:4.0999999;stroke-dasharray:none;stroke-opacity:1"
       sodipodi:nodetypes="cccccccc" />
    <rect
       style="fill:#666666;stroke:#000000;stroke-width:4;stroke-miterlimit:4;stroke-dasharray:none;stroke-opacity:0"
       id="rect4347"
       width="2965.7144"
       height="85.714287"
       x="-3102.8572"
       y="-467.63779" />
    <rect
       style="fill:#333333;stroke:#000000;stroke-width:4;stroke-miterlimit:4;stroke-dasharray:none;stroke-opacity:0"
       id="rect4345"
       width="2862.8572"
       height="1028.5714"
       x="-3045.7144"
       y="-1490.495" />
    <rect
       style="fill:#808000;fill-opacity:1;stroke:none;stroke-width:90;stroke-linecap:round;stroke-linejoin:round;stroke-miterlimit:4;stroke-dasharray:none;stroke-opacity:1"
       id="rect5787"
       width="1281.2126"
       height="286.83865"
       x="-3016.8845"
       y="-790.3797" />
    <path
       style="fill:#0000ff;fill-opacity:1;stroke:#ff2a2a;stroke-width:4;stroke-miterlimit:4;stroke-dasharray:none"
       transform="translate(3.4441854,-625.465)"
       inkscape:connector-curvature="0"
       inkscape:original-d="M 0,0"
       inkscape:path-effect="#path-effect4293"
       id="path4291"
       d="m -273.26492,1720.0248 -57.56169,14.0608 -20.05903,121.4265 27.90864,131.6531 44.47877,-6.3908 0.30185,-1.4075 -12.50455,-48.2273 -0.8794,4.8982 -23.54707,11.5042 -13.08211,-93.3075 c 0,0 15.69786,-70.2999 19.18638,-84.3599 l 18.31546,5.112 16.57011,63.9094 -6.64304,36.995 7.00475,-1.7114 8.42629,45.2816 15.63176,-72.8953 -23.54712,-126.5411 z" />
    <path
       d="m -273.26492,1720.0248 -57.56169,14.0608 -20.05903,121.4265 27.90864,131.6531 44.47877,-6.3908 0.30185,-1.4075 -12.50455,-48.2273 -0.8794,4.8982 -23.54707,11.5042 -13.08211,-93.3075 c 0,0 15.69786,-70.2999 19.18638,-84.3599 l 18.31546,5.112 16.57011,63.9094 -6.64304,36.995 7.00475,-1.7114 8.42629,45.2816 15.63176,-72.8953 -23.54712,-126.5411 z"
       id="path4295"
       inkscape:path-effect="#path-effect4297"
       inkscape:original-d="M 0,0"
       inkscape:connector-curvature="0"
       transform="translate(3.6892941,-779.37675)"
       style="fill:#0000ff;fill-opacity:1;stroke:#ff2a2a;stroke-width:4;stroke-miterlimit:4;stroke-dasharray:none" />
    <rect
       style="fill:#000080;stroke:#000000;stroke-width:3.32274079;stroke-miterlimit:4;stroke-dasharray:none;stroke-opacity:0"
       id="rect4359"
       width="3100.9368"
       height="129.97679"
       x="-3196.8877"
       y="-1423.4495" />
    <path
       style="fill:#000080;stroke:#000000;stroke-width:0.90366536;stroke-miterlimit:4;stroke-dasharray:none;stroke-opacity:0"
       d="m -3096.981,-381.44585 -0.4401,34.41266 44.7542,36.58322 44.2727,-36.58322 45.8691,36.58322 44.2727,-36.58322 41.7982,33.23764 40.2238,-33.23764 0.5114,-34.41266 z"
       id="rect4154"
       inkscape:connector-curvature="0"
       sodipodi:nodetypes="cccccccccc" />
    <path
       d="m -3096.981,-381.44585 -0.4401,34.41266 44.7542,36.58322 44.2727,-36.58322 45.8691,36.58322 44.2727,-36.58322 41.7982,33.23764 40.2238,-33.23764 0.5114,-34.41266 z"
       id="path4176"
       inkscape:path-effect="#path-effect4174"
       inkscape:original-d="M 0,0"
       inkscape:connector-curvature="0"
       transform="translate(264.65996,0)"
       style="fill:#000080" />
    <path
       style="fill:#000080;stroke:#000000;stroke-width:4;stroke-miterlimit:4;stroke-dasharray:none;stroke-opacity:0"
       d="m -2918.7437,-339.98491 -56.2148,56.21485 -79.5,0 0,79.5 -56.2149,56.21484 56.2149,56.214845 0,79.5 79.5,0 56.2148,56.214846 56.2149,-56.214846 79.498,0 0,-79.5 56.2149,-56.214845 -56.2149,-56.21484 0,-79.5 -79.498,0 -56.2149,-56.21485 z m 0,136.3711 a 55.558388,55.558388 0 0 1 55.5586,55.55859 55.558388,55.558388 0 0 1 -55.5586,55.558595 55.558388,55.558388 0 0 1 -55.5586,-55.558595 55.558388,55.558388 0 0 1 55.5586,-55.55859 z"
       id="rect4178"
       inkscape:connector-curvature="0" />
    <path
       style="fill:#0000ff;fill-opacity:1;stroke:#ff2a2a;stroke-width:4;stroke-miterlimit:4;stroke-dasharray:none"
       transform="translate(5.7095991,-936.96054)"
       inkscape:connector-curvature="0"
       inkscape:original-d="M 0,0"
       inkscape:path-effect="#path-effect4229"
       id="path4227"
       d="m -273.26492,1720.0248 -57.56169,14.0608 -20.05903,121.4265 27.90864,131.6531 44.47877,-6.3908 0.30185,-1.4075 -12.50455,-48.2273 -0.8794,4.8982 -23.54707,11.5042 -13.08211,-93.3075 c 0,0 15.69786,-70.2999 19.18638,-84.3599 l 18.31546,5.112 16.57011,63.9094 -6.64304,36.995 7.00475,-1.7114 8.42629,45.2816 15.63176,-72.8953 -23.54712,-126.5411 z" />
    <path
       d="m -273.26492,1720.0248 -57.56169,14.0608 -20.05903,121.4265 27.90864,131.6531 44.47877,-6.3908 0.30185,-1.4075 -12.50455,-48.2273 -0.8794,4.8982 -23.54707,11.5042 -13.08211,-93.3075 c 0,0 15.69786,-70.2999 19.18638,-84.3599 l 18.31546,5.112 16.57011,63.9094 -6.64304,36.995 7.00475,-1.7114 8.42629,45.2816 15.63176,-72.8953 -23.54712,-126.5411 z"
       id="path4231"
       inkscape:path-effect="#path-effect4233"
       inkscape:original-d="M 0,0"
       inkscape:connector-curvature="0"
       transform="translate(5.7095991,-1090.5037)"
       style="fill:#0000ff;fill-opacity:1;stroke:#ff2a2a;stroke-width:4;stroke-miterlimit:4;stroke-dasharray:none" />
    <path
       style="fill:#0000ff;fill-opacity:1;stroke:#ff2a2a;stroke-width:4;stroke-miterlimit:4;stroke-dasharray:none"
       transform="translate(7.7299041,-1247.0773)"
       inkscape:connector-curvature="0"
       inkscape:original-d="M 0,0"
       inkscape:path-effect="#path-effect4237"
       id="path4235"
       d="m -273.26492,1720.0248 -57.56169,14.0608 -20.05903,121.4265 27.90864,131.6531 44.47877,-6.3908 0.30185,-1.4075 -12.50455,-48.2273 -0.8794,4.8982 -23.54707,11.5042 -13.08211,-93.3075 c 0,0 15.69786,-70.2999 19.18638,-84.3599 l 18.31546,5.112 16.57011,63.9094 -6.64304,36.995 7.00475,-1.7114 8.42629,45.2816 15.63176,-72.8953 -23.54712,-126.5411 z" />
    <path
       d="m -273.26492,1720.0248 -57.56169,14.0608 -20.05903,121.4265 27.90864,131.6531 44.47877,-6.3908 0.30185,-1.4075 -12.50455,-48.2273 -0.8794,4.8982 -23.54707,11.5042 -13.08211,-93.3075 c 0,0 15.69786,-70.2999 19.18638,-84.3599 l 18.31546,5.112 16.57011,63.9094 -6.64304,36.995 7.00475,-1.7114 8.42629,45.2816 15.63176,-72.8953 -23.54712,-126.5411 z"
       id="path4239"
       inkscape:path-effect="#path-effect4241"
       inkscape:original-d="M 0,0"
       inkscape:connector-curvature="0"
       transform="translate(7.7299041,-1402.6408)"
       style="fill:#0000ff;fill-opacity:1;stroke:#ff2a2a;stroke-width:4;stroke-miterlimit:4;stroke-dasharray:none" />
    <path
       style="fill:#0000ff;fill-opacity:1;stroke:#ff2a2a;stroke-width:4;stroke-miterlimit:4;stroke-dasharray:none"
       transform="translate(8.7400566,-1559.2144)"
       inkscape:connector-curvature="0"
       inkscape:original-d="M 0,0"
       inkscape:path-effect="#path-effect4245"
       id="path4243"
       d="m -273.26492,1720.0248 -57.56169,14.0608 -20.05903,121.4265 27.90864,131.6531 44.47877,-6.3908 0.30185,-1.4075 -12.50455,-48.2273 -0.8794,4.8982 -23.54707,11.5042 -13.08211,-93.3075 c 0,0 15.69786,-70.2999 19.18638,-84.3599 l 18.31546,5.112 16.57011,63.9094 -6.64304,36.995 7.00475,-1.7114 8.42629,45.2816 15.63176,-72.8953 -23.54712,-126.5411 z" />
    <path
       d="m -273.26492,1720.0248 -57.56169,14.0608 -20.05903,121.4265 27.90864,131.6531 44.47877,-6.3908 0.30185,-1.4075 -12.50455,-48.2273 -0.8794,4.8982 -23.54707,11.5042 -13.08211,-93.3075 c 0,0 15.69786,-70.2999 19.18638,-84.3599 l 18.31546,5.112 16.57011,63.9094 -6.64304,36.995 7.00475,-1.7114 8.42629,45.2816 15.63176,-72.8953 -23.54712,-126.5411 z"
       id="path4247"
       inkscape:path-effect="#path-effect4249"
       inkscape:original-d="M 0,0"
       inkscape:connector-curvature="0"
       transform="translate(9.4543423,-1715.643)"
       style="fill:#0000ff;fill-opacity:1;stroke:#ff2a2a;stroke-width:4;stroke-miterlimit:4;stroke-dasharray:none" />
    <path
       style="fill:#0000ff;fill-opacity:1;stroke:#ff2a2a;stroke-width:4;stroke-miterlimit:4;stroke-dasharray:none"
       inkscape:path-effect="#path-effect4253"
       d="m -273.26492,1720.0248 -57.56169,14.0608 -20.05903,121.4265 27.90864,131.6531 44.47877,-6.3908 0.30185,-1.4075 -12.50455,-48.2273 -0.8794,4.8982 -23.54707,11.5042 -13.08211,-93.3075 c 0,0 15.69786,-70.2999 19.18638,-84.3599 l 18.31546,5.112 16.57011,63.9094 -6.64304,36.995 7.00475,-1.7114 8.42629,45.2816 15.63176,-72.8953 -23.54712,-126.5411 z"
       id="path4251"
       inkscape:original-d="M 0,0"
       inkscape:connector-curvature="0"
       transform="translate(9.9906013,-1870.2463)" />
    <path
       style="fill:#0000ff;fill-opacity:1;stroke:#ff2a2a;stroke-width:4;stroke-miterlimit:4;stroke-dasharray:none"
       transform="translate(10.073261,-2025.2411)"
       inkscape:connector-curvature="0"
       inkscape:original-d="M 0,0"
       inkscape:path-effect="#path-effect4257"
       id="path4255"
       d="m -273.26492,1720.0248 -57.56169,14.0608 -20.05903,121.4265 27.90864,131.6531 44.47877,-6.3908 0.30185,-1.4075 -12.50455,-48.2273 -0.8794,4.8982 -23.54707,11.5042 -13.08211,-93.3075 c 0,0 15.69786,-70.2999 19.18638,-84.3599 l 18.31546,5.112 16.57011,63.9094 -6.64304,36.995 7.00475,-1.7114 8.42629,45.2816 15.63176,-72.8953 -23.54712,-126.5411 z" />
    <path
       d="m -273.26492,1720.0248 -57.56169,14.0608 -20.05903,121.4265 27.90864,131.6531 44.47877,-6.3908 0.30185,-1.4075 -12.50455,-48.2273 -0.8794,4.8982 -23.54707,11.5042 -13.08211,-93.3075 c 0,0 15.69786,-70.2999 19.18638,-84.3599 l 18.31546,5.112 16.57011,63.9094 -6.64304,36.995 7.00475,-1.7114 8.42629,45.2816 15.63176,-72.8953 -23.54712,-126.5411 z"
       id="path4259"
       inkscape:path-effect="#path-effect4261"
       inkscape:original-d="M 0,0"
       inkscape:connector-curvature="0"
       transform="translate(11.495671,-2183.1129)"
       style="fill:#0000ff;fill-opacity:1;stroke:#ff2a2a;stroke-width:4;stroke-miterlimit:4;stroke-dasharray:none" />
    <path
       style="fill:#0000ff;fill-opacity:1;stroke:#ff2a2a;stroke-width:4;stroke-miterlimit:4;stroke-dasharray:none"
       transform="translate(11.740781,-2337.0247)"
       inkscape:connector-curvature="0"
       inkscape:original-d="M 0,0"
       inkscape:path-effect="#path-effect4265"
       id="path4263"
       d="m -273.26492,1720.0248 -57.56169,14.0608 -20.05903,121.4265 27.90864,131.6531 44.47877,-6.3908 0.30185,-1.4075 -12.50455,-48.2273 -0.8794,4.8982 -23.54707,11.5042 -13.08211,-93.3075 c 0,0 15.69786,-70.2999 19.18638,-84.3599 l 18.31546,5.112 16.57011,63.9094 -6.64304,36.995 7.00475,-1.7114 8.42629,45.2816 15.63176,-72.8953 -23.54712,-126.5411 z" />
    <path
       d="m -273.26492,1720.0248 -57.56169,14.0608 -20.05903,121.4265 27.90864,131.6531 44.47877,-6.3908 0.30185,-1.4075 -12.50455,-48.2273 -0.8794,4.8982 -23.54707,11.5042 -13.08211,-93.3075 c 0,0 15.69786,-70.2999 19.18638,-84.3599 l 18.31546,5.112 16.57011,63.9094 -6.64304,36.995 7.00475,-1.7114 8.42629,45.2816 15.63176,-72.8953 -23.54712,-126.5411 z"
       id="path4267"
       inkscape:path-effect="#path-effect4269"
       inkscape:original-d="M 0,0"
       inkscape:connector-curvature="0"
       transform="translate(13.761081,-2494.6085)"
       style="fill:#0000ff;fill-opacity:1;stroke:#ff2a2a;stroke-width:4;stroke-miterlimit:4;stroke-dasharray:none" />
    <path
       style="fill:#0000ff;fill-opacity:1;stroke:#ff2a2a;stroke-width:4;stroke-miterlimit:4;stroke-dasharray:none"
       transform="translate(13.761081,-2648.1516)"
       inkscape:connector-curvature="0"
       inkscape:original-d="M 0,0"
       inkscape:path-effect="#path-effect4273"
       id="path4271"
       d="m -273.26492,1720.0248 -57.56169,14.0608 -20.05903,121.4265 27.90864,131.6531 44.47877,-6.3908 0.30185,-1.4075 -12.50455,-48.2273 -0.8794,4.8982 -23.54707,11.5042 -13.08211,-93.3075 c 0,0 15.69786,-70.2999 19.18638,-84.3599 l 18.31546,5.112 16.57011,63.9094 -6.64304,36.995 7.00475,-1.7114 8.42629,45.2816 15.63176,-72.8953 -23.54712,-126.5411 z" />
    <path
       d="m -273.26492,1720.0248 -57.56169,14.0608 -20.05903,121.4265 27.90864,131.6531 44.47877,-6.3908 0.30185,-1.4075 -12.50455,-48.2273 -0.8794,4.8982 -23.54707,11.5042 -13.08211,-93.3075 c 0,0 15.69786,-70.2999 19.18638,-84.3599 l 18.31546,5.112 16.57011,63.9094 -6.64304,36.995 7.00475,-1.7114 8.42629,45.2816 15.63176,-72.8953 -23.54712,-126.5411 z"
       id="path4275"
       inkscape:path-effect="#path-effect4277"
       inkscape:original-d="M 0,0"
       inkscape:connector-curvature="0"
       transform="translate(15.781391,-2804.7252)"
       style="fill:#0000ff;fill-opacity:1;stroke:#ff2a2a;stroke-width:4;stroke-miterlimit:4;stroke-dasharray:none" />
    <path
       style="fill:#0000ff;fill-opacity:1;stroke:#ff2a2a;stroke-width:4;stroke-miterlimit:4;stroke-dasharray:none"
       transform="translate(15.781391,-2960.2887)"
       inkscape:connector-curvature="0"
       inkscape:original-d="M 0,0"
       inkscape:path-effect="#path-effect4281"
       id="path4279"
       d="m -273.26492,1720.0248 -57.56169,14.0608 -20.05903,121.4265 27.90864,131.6531 44.47877,-6.3908 0.30185,-1.4075 -12.50455,-48.2273 -0.8794,4.8982 -23.54707,11.5042 -13.08211,-93.3075 c 0,0 15.69786,-70.2999 19.18638,-84.3599 l 18.31546,5.112 16.57011,63.9094 -6.64304,36.995 7.00475,-1.7114 8.42629,45.2816 15.63176,-72.8953 -23.54712,-126.5411 z" />
    <path
       d="m -273.26492,1720.0248 -57.56169,14.0608 -20.05903,121.4265 27.90864,131.6531 44.47877,-6.3908 0.30185,-1.4075 -12.50455,-48.2273 -0.8794,4.8982 -23.54707,11.5042 -13.08211,-93.3075 c 0,0 15.69786,-70.2999 19.18638,-84.3599 l 18.31546,5.112 16.57011,63.9094 -6.64304,36.995 7.00475,-1.7114 8.42629,45.2816 15.63176,-72.8953 -23.54712,-126.5411 z"
       id="path4283"
       inkscape:path-effect="#path-effect4285"
       inkscape:original-d="M 0,0"
       inkscape:connector-curvature="0"
       transform="translate(16.791541,-3116.8623)"
       style="fill:#0000ff;fill-opacity:1;stroke:#ff2a2a;stroke-width:4;stroke-miterlimit:4;stroke-dasharray:none" />
    <path
       style="fill:#0000ff;fill-opacity:1;stroke:#ff2a2a;stroke-width:4;stroke-miterlimit:4;stroke-dasharray:none"
       transform="translate(17.505821,-3273.2909)"
       inkscape:connector-curvature="0"
       inkscape:original-d="M 0,0"
       inkscape:path-effect="#path-effect4289"
       id="path4287"
       d="m -273.26492,1720.0248 -57.56169,14.0608 -20.05903,121.4265 27.90864,131.6531 44.47877,-6.3908 0.30185,-1.4075 -12.50455,-48.2273 -0.8794,4.8982 -23.54707,11.5042 -13.08211,-93.3075 c 0,0 15.69786,-70.2999 19.18638,-84.3599 l 18.31546,5.112 16.57011,63.9094 -6.64304,36.995 7.00475,-1.7114 8.42629,45.2816 15.63176,-72.8953 -23.54712,-126.5411 z" />
    <rect
       style="fill:#808080;stroke:#000000;stroke-width:4.41577101;stroke-miterlimit:4;stroke-dasharray:none;stroke-opacity:0"
       id="rect4295"
       width="1959.5841"
       height="651.01276"
       x="-2375.4841"
       y="-120.73933" />
    <rect
       style="fill:#333333;stroke:#000000;stroke-width:4;stroke-miterlimit:4;stroke-dasharray:none;stroke-opacity:0"
       id="rect4297"
       width="2125.7141"
       height="108.57143"
       x="-2472.8347"
       y="-189.51855" />
    <rect
       y="519.05286"
       x="-2472.8347"
       height="108.57143"
       width="2125.7141"
       id="rect4299"
       style="fill:#333333;stroke:#000000;stroke-width:4;stroke-miterlimit:4;stroke-dasharray:none;stroke-opacity:0" />
    <rect
       style="fill:#808000;fill-opacity:1;stroke:none;stroke-width:90;stroke-linecap:round;stroke-linejoin:round;stroke-miterlimit:4;stroke-dasharray:none;stroke-opacity:1"
       id="rect5793"
       width="66.929016"
       height="2132.1672"
       x="-2906.9297"
       y="79.697517" />
    <rect
       style="fill:#808080;stroke:#000000;stroke-width:4;stroke-miterlimit:4;stroke-dasharray:none;stroke-opacity:0"
       id="rect4301"
       width="537.14282"
       height="765.71429"
       x="-3089.9778"
       y="119.05285" />
    <circle
       style="fill:#808080;stroke:#000000;stroke-width:4;stroke-miterlimit:4;stroke-dasharray:none;stroke-opacity:0"
       id="path4305"
       cx="-2402.8347"
       cy="-136.66144"
       r="38.571426" />
    <path
       style="fill:none;fill-rule:evenodd;stroke:#000000;stroke-width:90;stroke-linecap:butt;stroke-linejoin:miter;stroke-opacity:1;stroke-miterlimit:4;stroke-dasharray:none"
       d="m -3638.0045,1473.1507 4550.0532,0"
       id="path5767"
       inkscape:connector-curvature="0" />
    <rect
       style="fill:#808080;stroke:#000000;stroke-width:4;stroke-miterlimit:4;stroke-dasharray:none;stroke-opacity:0"
       id="rect4303"
       width="565.71429"
       height="725.71429"
       x="-3095.6919"
       y="958.94043" />
    <ellipse
       style="fill:#0000ff;stroke:#000000;stroke-width:4;stroke-miterlimit:4;stroke-dasharray:none;stroke-opacity:0"
       id="path4301"
       cx="-28.696356"
       cy="1722.767"
       rx="408.57144"
       ry="377.14285" />
    <ellipse
       ry="175.54567"
       rx="190.17448"
       cy="1718.3324"
       cx="-28.652594"
       id="ellipse4303"
       style="fill:#666666;stroke:#000000;stroke-width:1.86184812;stroke-miterlimit:4;stroke-dasharray:none;stroke-opacity:0" />
    <rect
       style="fill:#d48000;stroke:none;stroke-width:90;stroke-linecap:round;stroke-linejoin:round;stroke-miterlimit:4;stroke-dasharray:none;stroke-opacity:1;fill-opacity:1"
       id="rect5769"
       width="897.50305"
       height="133.52682"
       x="-2399.0784"
       y="-353.96936" />
    <text
       xml:space="preserve"
       style="font-style:normal;font-weight:normal;font-size:90.52132416px;line-height:125%;font-family:sans-serif;letter-spacing:0px;word-spacing:0px;fill:#000000;fill-opacity:1;stroke:none;stroke-width:1px;stroke-linecap:butt;stroke-linejoin:miter;stroke-opacity:1"
       x="-2982.4766"
       y="-184.88159"
       id="text5771"
       sodipodi:linespacing="125%"
       transform="scale(0.74145942,1.3486915)"><tspan
         sodipodi:role="line"
         id="tspan5773"
         x="-2982.4766"
         y="-184.88159"
         style="fill:#ff0000;fill-opacity:1">Titulo da pagina</tspan></text>
    <text
       xml:space="preserve"
       style="font-style:normal;font-weight:normal;font-size:172.79766846px;line-height:125%;font-family:sans-serif;letter-spacing:0px;word-spacing:0px;fill:#000000;fill-opacity:1;stroke:none;stroke-width:1px;stroke-linecap:butt;stroke-linejoin:miter;stroke-opacity:1"
       x="-3493.5269"
       y="-490.00693"
       id="text5783"
       sodipodi:linespacing="125%"
       transform="scale(0.85115858,1.1748692)"><tspan
         sodipodi:role="line"
         id="tspan5785"
         x="-3493.5269"
         y="-490.00693"
         style="fill:#ff0000;fill-opacity:1">Titulo do blocg</tspan></text>
    <rect
       style="fill:#808000;fill-opacity:1;stroke:none;stroke-width:90;stroke-linecap:round;stroke-linejoin:round;stroke-miterlimit:4;stroke-dasharray:none;stroke-opacity:1"
       id="rect5789"
       width="81.27095"
       height="2108.2639"
       x="-3150.7427"
       y="70.136238" />
    <rect
       style="fill:#808000;fill-opacity:1;stroke:none;stroke-width:90;stroke-linecap:round;stroke-linejoin:round;stroke-miterlimit:4;stroke-dasharray:none;stroke-opacity:1"
       id="rect5791"
       width="105.17417"
       height="2156.0706"
       x="-2615.3105"
       y="74.916885" />
  </g>
</svg>
