<?xml version="1.0" encoding="UTF-8" standalone="no"?>
<!-- Created with Inkscape (http://www.inkscape.org/) -->

<svg
   xmlns:dc="http://purl.org/dc/elements/1.1/"
   xmlns:cc="http://creativecommons.org/ns#"
   xmlns:rdf="http://www.w3.org/1999/02/22-rdf-syntax-ns#"
   xmlns:svg="http://www.w3.org/2000/svg"
   xmlns="http://www.w3.org/2000/svg"
   xmlns:sodipodi="http://sodipodi.sourceforge.net/DTD/sodipodi-0.dtd"
   xmlns:inkscape="http://www.inkscape.org/namespaces/inkscape"
   width="200.80112mm"
   height="1421.8964mm"
   viewBox="0 0 483.81986 3425.9882"
   id="svg2"
   version="1.1"
   inkscape:version="0.92.3 (2405546, 2018-03-11)"
   sodipodi:docname="scroll.svg">
  <defs
     id="defs4">
    <inkscape:path-effect
       effect="clone_original"
       linkedpath="#path4136"
       id="path-effect895"
       is_visible="true" />
    <inkscape:path-effect
       is_visible="true"
       id="path-effect4289"
       linkedpath="#path4136"
       effect="clone_original" />
    <inkscape:path-effect
       effect="clone_original"
       linkedpath="#path4136"
       id="path-effect4285"
       is_visible="true" />
    <inkscape:path-effect
       is_visible="true"
       id="path-effect4281"
       linkedpath="#path4136"
       effect="clone_original" />
    <inkscape:path-effect
       effect="clone_original"
       linkedpath="#path4136"
       id="path-effect4277"
       is_visible="true" />
    <inkscape:path-effect
       is_visible="true"
       id="path-effect4273"
       linkedpath="#path4136"
       effect="clone_original" />
    <inkscape:path-effect
       effect="clone_original"
       linkedpath="#path4136"
       id="path-effect4269"
       is_visible="true" />
    <inkscape:path-effect
       is_visible="true"
       id="path-effect4265"
       linkedpath="#path4136"
       effect="clone_original" />
    <inkscape:path-effect
       is_visible="true"
       effect="clone_original"
       linkedpath="#path4136"
       id="path-effect4261" />
    <inkscape:path-effect
       is_visible="true"
       id="path-effect4257"
       linkedpath="#path4136"
       effect="clone_original" />
    <inkscape:path-effect
       is_visible="true"
       effect="clone_original"
       linkedpath="#path4136"
       id="path-effect4253" />
    <inkscape:path-effect
       effect="clone_original"
       linkedpath="#path4136"
       id="path-effect4249"
       is_visible="true" />
    <inkscape:path-effect
       is_visible="true"
       id="path-effect4245"
       linkedpath="#path4136"
       effect="clone_original" />
    <inkscape:path-effect
       effect="clone_original"
       linkedpath="#path4136"
       id="path-effect4241"
       is_visible="true" />
    <inkscape:path-effect
       is_visible="true"
       id="path-effect4237"
       linkedpath="#path4136"
       effect="clone_original" />
    <inkscape:path-effect
       effect="clone_original"
       linkedpath="#path4136"
       id="path-effect4233"
       is_visible="true" />
    <inkscape:path-effect
       is_visible="true"
       id="path-effect4229"
       linkedpath="#path4136"
       effect="clone_original" />
    <inkscape:path-effect
       effect="clone_original"
       linkedpath="m -3096.981,-381.44585 -0.4401,34.41266 44.7542,36.58322 44.2727,-36.58322 45.8691,36.58322 44.2727,-36.58322 41.7982,33.23764 40.2238,-33.23764 0.5114,-34.41266 z"
       id="path-effect4174"
       is_visible="true" />
    <inkscape:path-effect
       effect="clone_original"
       linkedpath="#path4136"
       id="path-effect4297"
       is_visible="true" />
    <inkscape:path-effect
       id="path-effect4293"
       linkedpath="#path4136"
       effect="clone_original"
       is_visible="true" />
    <inkscape:path-effect
       id="path-effect4155"
       linkedpath="#path4136"
       effect="clone_original"
       is_visible="true" />
    <inkscape:path-effect
       effect="clone_original"
       linkedpath="#path4136"
       id="path-effect4149"
       is_visible="true" />
    <inkscape:path-effect
       effect="clone_original"
       linkedpath="#path4136"
       id="path-effect4145"
       is_visible="true" />
  </defs>
  <sodipodi:namedview
     id="base"
     pagecolor="#ffffff"
     bordercolor="#666666"
     borderopacity="1.0"
     inkscape:pageopacity="0.0"
     inkscape:pageshadow="2"
     inkscape:zoom="0.073955181"
     inkscape:cx="-1192.9335"
     inkscape:cy="2517.9655"
     inkscape:document-units="px"
     inkscape:current-layer="layer1"
     showgrid="false"
     inkscape:window-width="1300"
     inkscape:window-height="728"
     inkscape:window-x="58"
     inkscape:window-y="10"
     inkscape:window-maximized="1"
     fit-margin-top="0"
     fit-margin-left="0"
     fit-margin-right="0"
     fit-margin-bottom="0"
     scale-x="0.6375" />
  <metadata
     id="metadata7">
    <rdf:RDF>
      <cc:Work
         rdf:about="">
        <dc:format>image/svg+xml</dc:format>
        <dc:type
           rdf:resource="http://purl.org/dc/dcmitype/StillImage" />
        <dc:title></dc:title>
      </cc:Work>
    </rdf:RDF>
  </metadata>
  <g
     inkscape:label="Camada 1"
     inkscape:groupmode="layer"
     id="layer1"
     transform="translate(1275.9232,1278.5004)">
    <path
       style="fill:#0000ff;fill-opacity:1;fill-rule:evenodd;stroke:#ff2a2a;stroke-width:2.09041119;stroke-linecap:butt;stroke-linejoin:miter;stroke-miterlimit:4;stroke-dasharray:none;stroke-opacity:1"
       d="m -1106.7342,1960.7696 -57.5617,14.0608 -20.059,121.4265 27.9086,131.6531 44.4788,-6.3908 0.3019,-1.4075 -12.5046,-48.2273 -0.8794,4.8982 -23.5471,11.5042 -13.0821,-93.3075 c 0,0 15.6979,-70.2999 19.1864,-84.3599 l 18.3155,5.112 16.5701,63.9094 -6.6431,36.995 7.0048,-1.7114 8.4263,45.2816 15.6317,-72.8953 z"
       id="path4136"
       inkscape:connector-curvature="0" />
    <path
       d="m -1106.7342,1960.7696 -57.5617,14.0608 -20.059,121.4265 27.9086,131.6531 44.4788,-6.3908 0.3019,-1.4075 -12.5046,-48.2273 -0.8794,4.8982 -23.5471,11.5042 -13.0821,-93.3075 c 0,0 15.6979,-70.2999 19.1864,-84.3599 l 18.3155,5.112 16.5701,63.9094 -6.6431,36.995 7.0048,-1.7114 8.4263,45.2816 15.6317,-72.8953 z"
       id="path4151"
       inkscape:path-effect="#path-effect4149"
       inkscape:original-d="M 0,0"
       inkscape:connector-curvature="0"
       transform="translate(0.51997326,-74.66639)"
       style="fill:#0000ff;fill-opacity:1;stroke:#ff2a2a;stroke-width:4;stroke-miterlimit:4;stroke-dasharray:none" />
    <path
       transform="translate(1.9391136,-230.9984)"
       inkscape:connector-curvature="0"
       inkscape:original-d="M 0,0"
       id="path4153"
       d="m -1106.7342,1960.7696 -57.5617,14.0608 -20.059,121.4265 27.9086,131.6531 44.4788,-6.3908 0.3019,-1.4075 -12.5046,-48.2273 -0.8794,4.8982 -23.5471,11.5042 -13.0821,-93.3075 c 0,0 15.6979,-70.2999 19.1864,-84.3599 l 18.3155,5.112 16.5701,63.9094 -6.6431,36.995 7.0048,-1.7114 8.4263,45.2816 15.6317,-72.8953 z"
       inkscape:path-effect="#path-effect4155"
       style="fill:#0000ff;fill-opacity:1;stroke:#ff2a2a;stroke-width:4;stroke-miterlimit:4;stroke-dasharray:none" />
    <path
       d="m -1106.7342,1960.7696 -57.5617,14.0608 -20.059,121.4265 27.9086,131.6531 44.4788,-6.3908 0.3019,-1.4075 -12.5046,-48.2273 -0.8794,4.8982 -23.5471,11.5042 -13.0821,-93.3075 c 0,0 15.6979,-70.2999 19.1864,-84.3599 l 18.3155,5.112 16.5701,63.9094 -6.6431,36.995 7.0048,-1.7114 8.4263,45.2816 15.6317,-72.8953 z"
       id="path4147"
       inkscape:path-effect="#path-effect4145"
       inkscape:original-d="M 0,0"
       inkscape:connector-curvature="0"
       transform="translate(2.0217811,-385.99317)"
       style="fill:#0000ff;fill-opacity:1;stroke:#ff2a2a;stroke-width:4;stroke-miterlimit:4;stroke-dasharray:none" />
    <path
       style="fill:#0000ff;fill-opacity:1;stroke:#ff2a2a;stroke-width:4;stroke-miterlimit:4;stroke-dasharray:none"
       transform="translate(3.4441854,-543.865)"
       inkscape:connector-curvature="0"
       inkscape:original-d="M 0,0"
       inkscape:path-effect="#path-effect4293"
       id="path4291"
       d="m -1106.7342,1960.7696 -57.5617,14.0608 -20.059,121.4265 27.9086,131.6531 44.4788,-6.3908 0.3019,-1.4075 -12.5046,-48.2273 -0.8794,4.8982 -23.5471,11.5042 -13.0821,-93.3075 c 0,0 15.6979,-70.2999 19.1864,-84.3599 l 18.3155,5.112 16.5701,63.9094 -6.6431,36.995 7.0048,-1.7114 8.4263,45.2816 15.6317,-72.8953 z" />
    <path
       d="m -1106.7342,1960.7696 -57.5617,14.0608 -20.059,121.4265 27.9086,131.6531 44.4788,-6.3908 0.3019,-1.4075 -12.5046,-48.2273 -0.8794,4.8982 -23.5471,11.5042 -13.0821,-93.3075 c 0,0 15.6979,-70.2999 19.1864,-84.3599 l 18.3155,5.112 16.5701,63.9094 -6.6431,36.995 7.0048,-1.7114 8.4263,45.2816 15.6317,-72.8953 z"
       id="path4295"
       inkscape:path-effect="#path-effect4297"
       inkscape:original-d="M 0,0"
       inkscape:connector-curvature="0"
       transform="translate(3.6892941,-697.77675)"
       style="fill:#0000ff;fill-opacity:1;stroke:#ff2a2a;stroke-width:4;stroke-miterlimit:4;stroke-dasharray:none" />
    <path
       style="fill:#0000ff;fill-opacity:1;stroke:#ff2a2a;stroke-width:4;stroke-miterlimit:4;stroke-dasharray:none"
       transform="translate(5.7095991,-855.36054)"
       inkscape:connector-curvature="0"
       inkscape:original-d="M 0,0"
       inkscape:path-effect="#path-effect4229"
       id="path4227"
       d="m -1106.7342,1960.7696 -57.5617,14.0608 -20.059,121.4265 27.9086,131.6531 44.4788,-6.3908 0.3019,-1.4075 -12.5046,-48.2273 -0.8794,4.8982 -23.5471,11.5042 -13.0821,-93.3075 c 0,0 15.6979,-70.2999 19.1864,-84.3599 l 18.3155,5.112 16.5701,63.9094 -6.6431,36.995 7.0048,-1.7114 8.4263,45.2816 15.6317,-72.8953 z" />
    <path
       d="m -1106.7342,1960.7696 -57.5617,14.0608 -20.059,121.4265 27.9086,131.6531 44.4788,-6.3908 0.3019,-1.4075 -12.5046,-48.2273 -0.8794,4.8982 -23.5471,11.5042 -13.0821,-93.3075 c 0,0 15.6979,-70.2999 19.1864,-84.3599 l 18.3155,5.112 16.5701,63.9094 -6.6431,36.995 7.0048,-1.7114 8.4263,45.2816 15.6317,-72.8953 z"
       id="path4231"
       inkscape:path-effect="#path-effect4233"
       inkscape:original-d="M 0,0"
       inkscape:connector-curvature="0"
       transform="translate(5.7095991,-1008.9037)"
       style="fill:#0000ff;fill-opacity:1;stroke:#ff2a2a;stroke-width:4;stroke-miterlimit:4;stroke-dasharray:none" />
    <path
       style="fill:#0000ff;fill-opacity:1;stroke:#ff2a2a;stroke-width:4;stroke-miterlimit:4;stroke-dasharray:none"
       transform="translate(7.7299041,-1165.4773)"
       inkscape:connector-curvature="0"
       inkscape:original-d="M 0,0"
       inkscape:path-effect="#path-effect4237"
       id="path4235"
       d="m -1106.7342,1960.7696 -57.5617,14.0608 -20.059,121.4265 27.9086,131.6531 44.4788,-6.3908 0.3019,-1.4075 -12.5046,-48.2273 -0.8794,4.8982 -23.5471,11.5042 -13.0821,-93.3075 c 0,0 15.6979,-70.2999 19.1864,-84.3599 l 18.3155,5.112 16.5701,63.9094 -6.6431,36.995 7.0048,-1.7114 8.4263,45.2816 15.6317,-72.8953 z" />
    <path
       d="m -1106.7342,1960.7696 -57.5617,14.0608 -20.059,121.4265 27.9086,131.6531 44.4788,-6.3908 0.3019,-1.4075 -12.5046,-48.2273 -0.8794,4.8982 -23.5471,11.5042 -13.0821,-93.3075 c 0,0 15.6979,-70.2999 19.1864,-84.3599 l 18.3155,5.112 16.5701,63.9094 -6.6431,36.995 7.0048,-1.7114 8.4263,45.2816 15.6317,-72.8953 z"
       id="path4239"
       inkscape:path-effect="#path-effect4241"
       inkscape:original-d="M 0,0"
       inkscape:connector-curvature="0"
       transform="translate(7.7299041,-1321.0408)"
       style="fill:#0000ff;fill-opacity:1;stroke:#ff2a2a;stroke-width:4;stroke-miterlimit:4;stroke-dasharray:none" />
    <path
       style="fill:#0000ff;fill-opacity:1;stroke:#ff2a2a;stroke-width:4;stroke-miterlimit:4;stroke-dasharray:none"
       transform="translate(8.7400566,-1477.6144)"
       inkscape:connector-curvature="0"
       inkscape:original-d="M 0,0"
       inkscape:path-effect="#path-effect4245"
       id="path4243"
       d="m -1106.7342,1960.7696 -57.5617,14.0608 -20.059,121.4265 27.9086,131.6531 44.4788,-6.3908 0.3019,-1.4075 -12.5046,-48.2273 -0.8794,4.8982 -23.5471,11.5042 -13.0821,-93.3075 c 0,0 15.6979,-70.2999 19.1864,-84.3599 l 18.3155,5.112 16.5701,63.9094 -6.6431,36.995 7.0048,-1.7114 8.4263,45.2816 15.6317,-72.8953 z" />
    <path
       d="m -1106.7342,1960.7696 -57.5617,14.0608 -20.059,121.4265 27.9086,131.6531 44.4788,-6.3908 0.3019,-1.4075 -12.5046,-48.2273 -0.8794,4.8982 -23.5471,11.5042 -13.0821,-93.3075 c 0,0 15.6979,-70.2999 19.1864,-84.3599 l 18.3155,5.112 16.5701,63.9094 -6.6431,36.995 7.0048,-1.7114 8.4263,45.2816 15.6317,-72.8953 z"
       id="path4247"
       inkscape:path-effect="#path-effect4249"
       inkscape:original-d="M 0,0"
       inkscape:connector-curvature="0"
       transform="translate(9.4543423,-1634.043)"
       style="fill:#0000ff;fill-opacity:1;stroke:#ff2a2a;stroke-width:4;stroke-miterlimit:4;stroke-dasharray:none" />
    <path
       style="fill:#0000ff;fill-opacity:1;stroke:#ff2a2a;stroke-width:4;stroke-miterlimit:4;stroke-dasharray:none"
       inkscape:path-effect="#path-effect4253"
       d="m -1106.7342,1960.7696 -57.5617,14.0608 -20.059,121.4265 27.9086,131.6531 44.4788,-6.3908 0.3019,-1.4075 -12.5046,-48.2273 -0.8794,4.8982 -23.5471,11.5042 -13.0821,-93.3075 c 0,0 15.6979,-70.2999 19.1864,-84.3599 l 18.3155,5.112 16.5701,63.9094 -6.6431,36.995 7.0048,-1.7114 8.4263,45.2816 15.6317,-72.8953 z"
       id="path4251"
       inkscape:original-d="M 0,0"
       inkscape:connector-curvature="0"
       transform="translate(9.9906013,-1788.6463)" />
    <path
       style="fill:#0000ff;fill-opacity:1;stroke:#ff2a2a;stroke-width:4;stroke-miterlimit:4;stroke-dasharray:none"
       transform="translate(10.073261,-1943.6411)"
       inkscape:connector-curvature="0"
       inkscape:original-d="M 0,0"
       inkscape:path-effect="#path-effect4257"
       id="path4255"
       d="m -1106.7342,1960.7696 -57.5617,14.0608 -20.059,121.4265 27.9086,131.6531 44.4788,-6.3908 0.3019,-1.4075 -12.5046,-48.2273 -0.8794,4.8982 -23.5471,11.5042 -13.0821,-93.3075 c 0,0 15.6979,-70.2999 19.1864,-84.3599 l 18.3155,5.112 16.5701,63.9094 -6.6431,36.995 7.0048,-1.7114 8.4263,45.2816 15.6317,-72.8953 z" />
    <path
       d="m -1106.7342,1960.7696 -57.5617,14.0608 -20.059,121.4265 27.9086,131.6531 44.4788,-6.3908 0.3019,-1.4075 -12.5046,-48.2273 -0.8794,4.8982 -23.5471,11.5042 -13.0821,-93.3075 c 0,0 15.6979,-70.2999 19.1864,-84.3599 l 18.3155,5.112 16.5701,63.9094 -6.6431,36.995 7.0048,-1.7114 8.4263,45.2816 15.6317,-72.8953 z"
       id="path4259"
       inkscape:path-effect="#path-effect4261"
       inkscape:original-d="M 0,0"
       inkscape:connector-curvature="0"
       transform="translate(11.495671,-2101.5129)"
       style="fill:#0000ff;fill-opacity:1;stroke:#ff2a2a;stroke-width:4;stroke-miterlimit:4;stroke-dasharray:none" />
    <path
       style="fill:#0000ff;fill-opacity:1;stroke:#ff2a2a;stroke-width:4;stroke-miterlimit:4;stroke-dasharray:none"
       transform="translate(11.740781,-2255.4247)"
       inkscape:connector-curvature="0"
       inkscape:original-d="M 0,0"
       inkscape:path-effect="#path-effect4265"
       id="path4263"
       d="m -1106.7342,1960.7696 -57.5617,14.0608 -20.059,121.4265 27.9086,131.6531 44.4788,-6.3908 0.3019,-1.4075 -12.5046,-48.2273 -0.8794,4.8982 -23.5471,11.5042 -13.0821,-93.3075 c 0,0 15.6979,-70.2999 19.1864,-84.3599 l 18.3155,5.112 16.5701,63.9094 -6.6431,36.995 7.0048,-1.7114 8.4263,45.2816 15.6317,-72.8953 z" />
    <path
       d="m -1106.7342,1960.7696 -57.5617,14.0608 -20.059,121.4265 27.9086,131.6531 44.4788,-6.3908 0.3019,-1.4075 -12.5046,-48.2273 -0.8794,4.8982 -23.5471,11.5042 -13.0821,-93.3075 c 0,0 15.6979,-70.2999 19.1864,-84.3599 l 18.3155,5.112 16.5701,63.9094 -6.6431,36.995 7.0048,-1.7114 8.4263,45.2816 15.6317,-72.8953 z"
       id="path4267"
       inkscape:path-effect="#path-effect4269"
       inkscape:original-d="M 0,0"
       inkscape:connector-curvature="0"
       transform="translate(13.761081,-2413.0085)"
       style="fill:#0000ff;fill-opacity:1;stroke:#ff2a2a;stroke-width:4;stroke-miterlimit:4;stroke-dasharray:none" />
    <path
       style="fill:#0000ff;fill-opacity:1;stroke:#ff2a2a;stroke-width:4;stroke-miterlimit:4;stroke-dasharray:none"
       transform="translate(13.761081,-2566.5516)"
       inkscape:connector-curvature="0"
       inkscape:original-d="M 0,0"
       inkscape:path-effect="#path-effect4273"
       id="path4271"
       d="m -1106.7342,1960.7696 -57.5617,14.0608 -20.059,121.4265 27.9086,131.6531 44.4788,-6.3908 0.3019,-1.4075 -12.5046,-48.2273 -0.8794,4.8982 -23.5471,11.5042 -13.0821,-93.3075 c 0,0 15.6979,-70.2999 19.1864,-84.3599 l 18.3155,5.112 16.5701,63.9094 -6.6431,36.995 7.0048,-1.7114 8.4263,45.2816 15.6317,-72.8953 z" />
    <path
       d="m -1106.7342,1960.7696 -57.5617,14.0608 -20.059,121.4265 27.9086,131.6531 44.4788,-6.3908 0.3019,-1.4075 -12.5046,-48.2273 -0.8794,4.8982 -23.5471,11.5042 -13.0821,-93.3075 c 0,0 15.6979,-70.2999 19.1864,-84.3599 l 18.3155,5.112 16.5701,63.9094 -6.6431,36.995 7.0048,-1.7114 8.4263,45.2816 15.6317,-72.8953 z"
       id="path4275"
       inkscape:path-effect="#path-effect4277"
       inkscape:original-d="M 0,0"
       inkscape:connector-curvature="0"
       transform="translate(15.781391,-2723.1252)"
       style="fill:#0000ff;fill-opacity:1;stroke:#ff2a2a;stroke-width:4;stroke-miterlimit:4;stroke-dasharray:none" />
    <path
       style="fill:#0000ff;fill-opacity:1;stroke:#ff2a2a;stroke-width:4;stroke-miterlimit:4;stroke-dasharray:none"
       transform="translate(15.781391,-2878.6887)"
       inkscape:connector-curvature="0"
       inkscape:original-d="M 0,0"
       inkscape:path-effect="#path-effect4281"
       id="path4279"
       d="m -1106.7342,1960.7696 -57.5617,14.0608 -20.059,121.4265 27.9086,131.6531 44.4788,-6.3908 0.3019,-1.4075 -12.5046,-48.2273 -0.8794,4.8982 -23.5471,11.5042 -13.0821,-93.3075 c 0,0 15.6979,-70.2999 19.1864,-84.3599 l 18.3155,5.112 16.5701,63.9094 -6.6431,36.995 7.0048,-1.7114 8.4263,45.2816 15.6317,-72.8953 z" />
    <path
       d="m -1106.7342,1960.7696 -57.5617,14.0608 -20.059,121.4265 27.9086,131.6531 44.4788,-6.3908 0.3019,-1.4075 -12.5046,-48.2273 -0.8794,4.8982 -23.5471,11.5042 -13.0821,-93.3075 c 0,0 15.6979,-70.2999 19.1864,-84.3599 l 18.3155,5.112 16.5701,63.9094 -6.6431,36.995 7.0048,-1.7114 8.4263,45.2816 15.6317,-72.8953 z"
       id="path4283"
       inkscape:path-effect="#path-effect4285"
       inkscape:original-d="M 0,0"
       inkscape:connector-curvature="0"
       transform="translate(16.791541,-3035.2623)"
       style="fill:#0000ff;fill-opacity:1;stroke:#ff2a2a;stroke-width:4;stroke-miterlimit:4;stroke-dasharray:none" />
    <path
       style="fill:#0000ff;fill-opacity:1;stroke:#ff2a2a;stroke-width:4;stroke-miterlimit:4;stroke-dasharray:none"
       transform="translate(17.505821,-3191.6909)"
       inkscape:connector-curvature="0"
       inkscape:original-d="M 0,0"
       inkscape:path-effect="#path-effect4289"
       id="path4287"
       d="m -1106.7342,1960.7696 -57.5617,14.0608 -20.059,121.4265 27.9086,131.6531 44.4788,-6.3908 0.3019,-1.4075 -12.5046,-48.2273 -0.8794,4.8982 -23.5471,11.5042 -13.0821,-93.3075 c 0,0 15.6979,-70.2999 19.1864,-84.3599 l 18.3155,5.112 16.5701,63.9094 -6.6431,36.995 7.0048,-1.7114 8.4263,45.2816 15.6317,-72.8953 z" />
    <g
       id="g891"
       transform="translate(-1533.8682,-203.62342)">
      <ellipse
         ry="377.14285"
         rx="408.57144"
         cy="1995.3138"
         cx="668.51648"
         id="path4301"
         style="fill:#0000ff;stroke:#000000;stroke-width:4;stroke-miterlimit:4;stroke-dasharray:none;stroke-opacity:0" />
      <ellipse
         style="fill:#666666;stroke:#000000;stroke-width:1.86184812;stroke-miterlimit:4;stroke-dasharray:none;stroke-opacity:0"
         id="ellipse4303"
         cx="668.56024"
         cy="1990.8793"
         rx="190.17448"
         ry="175.54567" />
    </g>
    <path
       d="m -1106.7342,1960.7696 -57.5617,14.0608 -20.059,121.4265 27.9086,131.6531 44.4788,-6.3908 0.3019,-1.4075 -12.5046,-48.2273 -0.8794,4.8982 -23.5471,11.5042 -13.0821,-93.3075 c 0,0 15.6979,-70.2999 19.1864,-84.3599 l 18.3155,5.112 16.5701,63.9094 -6.6431,36.995 7.0048,-1.7114 8.4263,45.2816 15.6317,-72.8953 z"
       id="path893"
       inkscape:path-effect="#path-effect895"
       inkscape:original-d="M 0,0"
       inkscape:connector-curvature="0"
       transform="translate(17.505821,-3329.3909)"
       style="fill:#0000ff;fill-opacity:1;stroke:#ff2a2a;stroke-width:4;stroke-miterlimit:4;stroke-dasharray:none" />
  </g>
</svg>
